HIERARCHY
ROOT Hips
{
	OFFSET 0.00000 0.00000 0.00000
	CHANNELS 6 Xposition Yposition Zposition Zrotation Yrotation Xrotation 
	JOINT LHipJoint
	{
		OFFSET 0 0 0
		CHANNELS 3 Zrotation Yrotation Xrotation
		JOINT LeftUpLeg
		{
			OFFSET 1.55766 -1.60504 1.11378
			CHANNELS 3 Zrotation Yrotation Xrotation
			JOINT LeftLeg
			{
				OFFSET 2.29047 -6.29302 0.00000
				CHANNELS 3 Zrotation Yrotation Xrotation
				JOINT LeftFoot
				{
					OFFSET 2.52265 -6.93093 0.00000
					CHANNELS 3 Zrotation Yrotation Xrotation
					JOINT LeftToeBase
					{
						OFFSET 0.17633 -0.48446 2.02656
						CHANNELS 3 Zrotation Yrotation Xrotation
						End Site
						{
							OFFSET 0.00000 -0.00000 1.04989
						}
					}
				}
			}
		}
	}
	JOINT RHipJoint
	{
		OFFSET 0 0 0
		CHANNELS 3 Zrotation Yrotation Xrotation
		JOINT RightUpLeg
		{
			OFFSET -1.48599 -1.60504 1.11378
			CHANNELS 3 Zrotation Yrotation Xrotation
			JOINT RightLeg
			{
				OFFSET -2.27280 -6.24448 0.00000
				CHANNELS 3 Zrotation Yrotation Xrotation
				JOINT RightFoot
				{
					OFFSET -2.50834 -6.89161 0.00000
					CHANNELS 3 Zrotation Yrotation Xrotation
					JOINT RightToeBase
					{
						OFFSET -0.26967 -0.74090 2.08741
						CHANNELS 3 Zrotation Yrotation Xrotation
						End Site
						{
							OFFSET -0.00000 -0.00000 1.10614
						}
					}
				}
			}
		}
	}
	JOINT LowerBack
	{
		OFFSET 0 0 0
		CHANNELS 3 Zrotation Yrotation Xrotation
		JOINT Spine
		{
			OFFSET 0.06481 2.02437 -0.08472
			CHANNELS 3 Zrotation Yrotation Xrotation
			JOINT Spine1
			{
				OFFSET 0.00015 1.96711 0.18069
				CHANNELS 3 Zrotation Yrotation Xrotation
				JOINT Neck
				{
					OFFSET 0 0 0
					CHANNELS 3 Zrotation Yrotation Xrotation
					JOINT Neck1
					{
						OFFSET -0.29961 1.68293 -0.13041
						CHANNELS 3 Zrotation Yrotation Xrotation
						JOINT Head
						{
							OFFSET 0.59697 1.61501 -0.14669
							CHANNELS 3 Zrotation Yrotation Xrotation
							End Site
							{
								OFFSET 0.22973 1.74906 -0.10148
							}
						}
					}
				}
				JOINT LeftShoulder
				{
					OFFSET 0 0 0
					CHANNELS 3 Zrotation Yrotation Xrotation
					JOINT LeftArm
					{
						OFFSET 3.37968 1.02893 0.31147
						CHANNELS 3 Zrotation Yrotation Xrotation
						JOINT LeftForeArm
						{
							OFFSET 5.19807 -0.00000 -0.00000
							CHANNELS 3 Zrotation Yrotation Xrotation
							JOINT LeftHand
							{
								OFFSET 3.09370 -0.00000 -0.00000
								CHANNELS 3 Zrotation Yrotation Xrotation
								JOINT LeftFingerBase
								{
									OFFSET 0 0 0
									CHANNELS 3 Zrotation Yrotation Xrotation
									JOINT LeftHandIndex1
									{
										OFFSET 0.67263 -0.00000 -0.00000
										CHANNELS 3 Zrotation Yrotation Xrotation
										End Site
										{
											OFFSET 0.54229 -0.00000 -0.00000
										}
									}
								}
								JOINT LThumb
								{
									OFFSET 0 0 0
									CHANNELS 3 Zrotation Yrotation Xrotation
									End Site
									{
										OFFSET 0.55057 -0.00000 0.55057
									}
								}
							}
						}
					}
				}
				JOINT RightShoulder
				{
					OFFSET 0 0 0
					CHANNELS 3 Zrotation Yrotation Xrotation
					JOINT RightArm
					{
						OFFSET -3.38254 0.96355 -0.16120
						CHANNELS 3 Zrotation Yrotation Xrotation
						JOINT RightForeArm
						{
							OFFSET -5.45222 -0.00000 -0.00000
							CHANNELS 3 Zrotation Yrotation Xrotation
							JOINT RightHand
							{
								OFFSET -3.01284 -0.00000 -0.00000
								CHANNELS 3 Zrotation Yrotation Xrotation
								JOINT RightFingerBase
								{
									OFFSET 0 0 0
									CHANNELS 3 Zrotation Yrotation Xrotation
									JOINT RightHandIndex1
									{
										OFFSET -0.62230 -0.00000 -0.00000
										CHANNELS 3 Zrotation Yrotation Xrotation
										End Site
										{
											OFFSET -0.50171 -0.00000 -0.00000
										}
									}
								}
								JOINT RThumb
								{
									OFFSET 0 0 0
									CHANNELS 3 Zrotation Yrotation Xrotation
									End Site
									{
										OFFSET -0.50937 -0.00000 0.50937
									}
								}
							}
						}
					}
				}
			}
		}
	}
}
MOTION
Frames: 16
Frame Time: 0.047619
0.00 0.00 0.00 0 0 0 0 0 0 -21 0 0 0 0 0 0 0 0 0 0 0 0 0 0 21 0 0 0 0 0 0 0 0 0 0 0 0 0 0 0 0 0 0 0 0 0 0 -16 0 0 21 0 0 11 0 0 0 -8 0 0 0 0 0 0 0 0 0 0 0 0 0 0 0 0 0 0 0 0 8 0 0 0 0 0 0 0 0 0 0 0 0 0 0 0 0 0
0.00 0.00 0.00 -174.9490 -9.0614 -167.1070 0.0000 0.0000 0.0000 -9.7845 -10.2947 -30.2036 5.8585 14.2898 44.4110 0.8917 4.3597 -19.9288 2.8291 -10.4131 -30.3250 0.0000 0.0000 0.0000 28.8736 10.5209 -20.6365 -2.5291 -9.8907 28.6234 -1.1257 12.2634 -19.5765 -0.2230 3.0398 -8.3895 8.0666 2.5093 -5.7738 -0.2509 2.6151 -5.7106 -4.6667 0.8457 -2.3253 -32.6184 -7.7094 15.4501 38.6900 -19.5098 -1.6844 19.3787 -12.1929 4.6769 0.0000 0.0000 0.0000 -85.3669 10.1196 40.9063 16.5655 -26.2814 -3.8930 -0.0000 0.0000 -32.2131 18.2603 -11.5523 -3.7804 -7.1250 0.0000 -0.0000 -6.2223 17.8753 4.0359 0.0000 0.0000 0.0000 90.5623 -2.9730 36.7536 -13.6071 22.1702 -2.6780 0.0000 0.0000 24.5058 -9.0675 -2.9842 0.4760 7.1250 -0.0000 -0.0000 14.1435 -32.7629 4.3546
0.00 0.00 0.00 -173.6720 1.3932 -166.2530 0.0000 0.0000 0.0000 1.7225 -19.6146 -46.6330 3.0659 10.8009 31.6115 0.1353 -5.0757 -6.9570 3.0639 -10.7977 -31.6008 0.0000 0.0000 0.0000 28.3279 7.5160 5.6693 -0.1899 -2.8066 7.7407 -0.4531 16.9512 -15.9461 -1.1136 6.7041 -18.8416 9.8967 2.4712 -3.8952 0.4123 3.7531 -6.0530 -5.0719 1.7218 -3.6094 -32.5168 -6.8263 14.9753 39.6917 -18.5498 -2.2648 20.1562 -11.9108 4.3237 0.0000 0.0000 0.0000 -86.6576 11.7004 32.7101 18.3618 -28.6179 -4.7212 -0.0000 0.0000 -37.8527 17.6744 -9.6752 -3.0654 -7.1250 0.0000 -0.0000 -6.6312 19.8689 4.0094 0.0000 0.0000 0.0000 89.4531 -9.6812 26.2989 -10.5176 17.5451 -1.6275 0.0000 0.0000 32.1553 -7.3297 -3.5678 0.4586 7.1250 -0.0000 -0.0000 15.6216 -33.2652 4.6418
0.00 0.00 0.00 -176.0360 1.3989 -167.8130 0.0000 0.0000 0.0000 -9.2725 -17.0384 -39.6931 4.9772 13.3580 40.7240 0.2806 -10.1753 -11.0552 1.5693 -7.9047 -22.4249 0.0000 0.0000 0.0000 23.7833 7.9340 2.1684 -3.1054 -10.8637 31.8216 0.8359 16.1857 3.0114 -2.2672 9.4018 -27.0604 6.3573 2.6594 -4.7055 -0.3721 4.1073 -7.0106 -3.9055 2.0264 -4.2294 -31.5032 -6.6972 18.5115 40.0201 -19.9936 -2.4698 20.2260 -13.1281 4.1228 0.0000 0.0000 0.0000 -86.8732 12.6030 30.8040 15.8968 -25.3805 -3.6016 -0.0000 0.0000 -32.1916 17.3625 -9.6075 -2.9871 -7.1250 0.0000 -0.0000 -6.8541 19.9583 4.1323 0.0000 0.0000 0.0000 92.7432 -9.8877 16.3844 -11.8300 19.5493 -2.0451 0.0000 0.0000 30.3587 -8.0767 -3.1869 0.4520 7.1250 -0.0000 -0.0000 14.9620 -32.9244 4.5612
0.00 0.00 0.00 -178.8820 2.6895 -168.2490 0.0000 0.0000 0.0000 -14.9970 -14.3716 -34.4337 4.0795 12.2654 36.6774 0.3206 -11.1511 -11.9365 1.4107 -7.5122 -21.2420 0.0000 0.0000 0.0000 19.1798 9.8074 -9.6217 -7.7030 -15.8964 51.4856 0.1083 12.6668 16.5600 -1.3933 7.4677 -21.1087 2.6438 2.4935 -3.2766 -1.2025 3.9001 -7.1177 -2.7950 2.0263 -5.2995 -31.2523 -6.8662 17.9625 39.7510 -20.1587 -1.9562 19.9140 -13.1490 4.3544 0.0000 -0.0000 0.0000 -86.3682 12.9410 31.6373 16.3624 -26.0096 -3.8035 -0.0000 0.0000 -32.1578 17.1983 -9.9063 -3.0481 -7.1250 0.0000 -0.0000 -6.9688 19.6587 4.2495 0.0000 -0.0000 0.0000 92.9977 -8.4612 18.8037 -13.2185 21.6065 -2.5332 0.0000 0.0000 26.7429 -8.0587 -3.1476 0.4454 7.1250 -0.0000 -0.0000 14.9694 -32.8853 4.5783
0.00 0.00 0.00 -181.7180 4.2660 -168.8590 0.0000 0.0000 0.0000 -20.3340 -10.7305 -29.7330 3.1278 10.8991 31.9405 0.2226 -12.6324 -11.5485 1.1292 -6.7493 -18.9748 0.0000 0.0000 0.0000 14.5627 11.6812 -23.6135 -13.6797 -19.0140 71.2239 0.4827 13.0720 9.8591 -1.3623 7.3875 -20.8686 -0.7888 2.3319 -0.9404 -1.9718 3.5215 -6.8612 -1.8034 1.9458 -6.5218 -31.4884 -6.9082 17.1584 39.6776 -19.7038 -2.2178 19.9115 -12.7992 4.2660 -0.0000 0.0000 0.0000 -85.3363 12.5611 34.4448 17.2041 -27.1261 -4.1800 -0.0000 0.0000 -34.4371 16.4562 -9.8557 -2.8944 -7.1250 0.0000 -0.0000 -7.4973 19.7561 4.5606 -0.0000 0.0000 0.0000 92.6537 -6.2166 23.9237 -15.3981 24.6978 -3.3905 0.0000 0.0000 22.8641 -8.4537 -3.3368 0.4956 7.1250 -0.0000 -0.0000 14.6897 -33.0852 4.4142
0.00 0.00 0.00 -181.7930 4.3288 -169.1280 0.0000 0.0000 0.0000 -22.4833 -6.9607 -26.0227 2.5338 9.8991 28.6505 0.0588 -15.3821 -11.4293 0.7508 -5.5343 -15.4391 0.0000 0.0000 0.0000 13.2516 10.9534 -43.0291 -19.9649 -20.0000 89.8973 0.2939 11.4934 -2.6065 -1.9427 8.7457 -25.0030 -0.2785 1.8501 1.8693 -2.0746 2.7134 -6.3335 -2.2665 1.4411 -7.5739 -32.0976 -7.2580 15.6062 39.1925 -19.1965 -2.5320 19.6470 -12.2469 4.2740 -0.0000 -0.0000 0.0000 -83.6892 9.1938 39.2506 16.3253 -25.9598 -3.7872 -0.0000 0.0000 -32.7652 16.1252 -9.8903 -2.8429 -7.1250 0.0000 -0.0000 -7.7321 19.7401 4.7089 -0.0000 -0.0000 0.0000 92.1656 -3.1724 29.1623 -19.1027 29.5461 -5.0814 0.0000 0.0000 18.8145 -9.8398 -3.6155 0.6267 7.1250 -0.0000 -0.0000 13.6345 -33.4131 3.9692
0.00 0.00 0.00 -181.2590 0.5099 -169.4180 0.0000 0.0000 0.0000 -24.6163 -3.0640 -10.8904 1.0824 6.6127 18.5728 0.0688 -17.1462 -12.7079 0.6044 -4.9765 -13.8415 0.0000 0.0000 0.0000 13.4284 15.0391 -75.1515 -14.9502 -19.3773 75.0866 0.1190 15.3582 -9.4439 -1.4679 7.6564 -21.6753 -0.5320 0.1351 6.1128 -1.0798 0.1830 -4.8443 -0.8752 0.1424 -8.5373 -32.5490 -8.1629 14.0769 37.9386 -19.0433 -3.0926 18.8067 -11.7176 4.2318 -0.0000 -0.0000 0.0000 -85.5824 2.2342 39.3969 18.4931 -28.7840 -4.7843 -0.0000 0.0000 -34.0302 17.7294 -11.9062 -3.7737 -7.1250 0.0000 -0.0000 -6.5968 17.5483 4.3297 -0.0000 -0.0000 0.0000 88.9293 -0.1837 31.0969 -24.1311 35.3026 -7.7822 0.0000 0.0000 14.1115 -18.1258 -3.5464 1.1600 7.1250 -0.0000 -0.0000 6.9449 -33.6509 1.9449
0.00 0.00 0.00 -180.9980 -2.3409 -167.6190 0.0000 0.0000 0.0000 -23.5325 0.8924 2.8288 0.0131 0.7385 2.0295 -0.8953 -19.6350 -4.2031 0.9542 -6.2206 -17.4258 0.0000 0.0000 0.0000 12.4387 17.4691 -69.3127 -9.7468 -17.2650 58.6388 0.7377 15.0126 5.0167 -0.6715 5.2402 -14.5950 -1.5296 -0.6190 3.7240 -0.5224 -1.1907 -5.3319 0.4438 -0.6040 -7.6492 -32.0346 -8.6040 14.0658 37.1237 -19.7476 -2.2126 18.1045 -11.9937 4.5584 -0.0000 -0.0000 0.0000 -87.1322 5.1633 40.2160 19.6617 -30.2327 -5.3600 -0.0000 0.0000 -34.5942 15.2150 -12.4260 -3.3493 -7.1250 0.0000 -0.0000 -8.3464 17.2011 5.5646 -0.0000 -0.0000 0.0000 89.6917 -0.2063 19.6515 -13.8183 22.4744 -2.7583 0.0000 0.0000 25.2387 -12.2055 -4.1828 0.9039 7.1250 -0.0000 -0.0000 11.8259 -34.0728 3.2285
0.00 0.00 0.00 -178.9950 -3.0651 -165.0760 0.0000 0.0000 0.0000 -19.9182 1.7219 8.0859 0.0000 0.0000 0.0000 -1.0214 -17.9464 10.8108 1.4379 -7.5812 -21.4491 0.0000 0.0000 0.0000 15.1290 20.8247 -63.1557 -11.0416 -17.9554 62.9165 0.2303 15.2980 -8.0217 -0.1102 2.1401 -5.8930 1.7384 -0.2864 0.4739 -0.2673 -0.8019 -7.1472 -1.1670 -0.7230 -7.7540 -33.1506 -8.4995 14.2329 38.3066 -20.0624 -2.9316 18.8957 -12.3203 4.7899 0.0000 0.0000 0.0000 -87.1849 11.1966 36.8100 16.9655 -26.8122 -4.0718 -0.0000 0.0000 -28.0335 11.8592 -12.4687 -2.5959 -7.1250 0.0000 -0.0000 -10.6663 17.3800 7.1183 0.0000 0.0000 0.0000 91.8383 -7.8771 2.6057 -9.5171 15.9807 -1.3389 0.0000 0.0000 40.4933 -6.8106 -3.0577 0.3650 7.1250 -0.0000 -0.0000 15.9374 -32.7501 4.9486
0.00 0.00 0.00 -178.9560 -3.2085 -166.5790 0.0000 0.0000 0.0000 -19.1740 -0.0552 3.1484 0.7954 5.6928 15.8955 0.9747 -9.2972 24.2015 0.2648 -3.3103 -9.1439 0.0000 0.0000 0.0000 17.9247 19.3452 -54.6167 -10.7243 -17.7975 61.8830 -0.2473 15.9914 -13.6493 -0.0949 1.9864 -5.4681 3.1344 -0.2699 0.6289 -0.5612 -0.7569 -7.3874 -2.2553 -0.8243 -8.1354 -33.8454 -8.1100 13.7602 38.0304 -20.0885 -1.0582 18.9294 -12.3396 5.4312 -0.0000 -0.0000 0.0000 -87.6486 13.2847 28.9329 14.2310 -23.0639 -2.9180 -0.0000 0.0000 -24.2336 12.3995 -9.9259 -2.1703 -7.1250 0.0000 -0.0000 -10.3735 19.9019 6.3262 -0.0000 -0.0000 0.0000 91.9661 -11.2541 1.1605 -8.8806 14.9700 -1.1691 0.0000 0.0000 44.9778 -1.5998 -2.4038 0.0671 7.1250 -0.0000 -0.0000 19.8538 -31.9203 6.7116
0.00 0.00 0.00 -177.9520 -3.6705 -167.3990 0.0000 0.0000 0.0000 -17.0315 -2.0374 -5.9042 3.6028 11.6122 34.3736 0.6628 -11.1869 23.2209 1.1182 -6.7176 -18.8812 0.0000 0.0000 0.0000 21.1454 17.5930 -47.6773 -9.6050 -17.1817 58.1599 -0.4614 16.5332 -15.8029 -0.0843 1.8724 -5.1531 4.6258 -0.1190 0.3777 -0.3405 -0.5042 -7.5373 -2.8769 -0.8077 -8.1592 -34.2084 -7.8692 13.8570 37.8215 -20.2169 0.0252 18.9361 -12.4448 5.7712 0.0000 0.0000 0.0000 -87.5576 14.0406 26.7452 14.1087 -22.8899 -2.8702 -0.0000 0.0000 -23.8630 13.2078 -7.6502 -1.7895 -7.1250 0.0000 -0.0000 -9.8960 22.1620 5.5125 0.0000 0.0000 0.0000 90.7048 -12.9822 9.4387 -9.8073 16.4377 -1.4199 0.0000 0.0000 40.6814 1.7289 -0.7988 -0.0241 7.1250 -0.0000 -0.0000 22.0173 -30.2887 8.4796
0.00 0.00 0.00 -175.5690 -3.7406 -168.3420 0.0000 0.0000 0.0000 -13.4360 -2.2150 -15.9233 8.1833 16.2524 53.2201 -0.4170 -12.4828 10.1492 2.2241 -9.3180 -26.7952 0.0000 0.0000 0.0000 25.5094 16.2464 -41.1445 -8.1257 -16.2109 53.0140 -0.5113 16.5445 -16.2168 -0.0740 1.7551 -4.8292 7.1536 0.2888 1.0081 0.2569 0.2606 -7.4674 -3.7179 -0.5850 -8.4139 -34.0911 -7.8210 14.3189 37.7164 -20.3246 0.1217 18.8828 -12.5335 5.7220 -0.0000 0.0000 0.0000 -87.0006 14.0722 28.2022 15.3457 -24.6255 -3.3687 -0.0000 0.0000 -26.0018 12.8810 -7.6821 -1.7510 -7.1250 0.0000 -0.0000 -10.1308 22.1414 5.6521 -0.0000 0.0000 0.0000 89.1796 -12.9244 16.4873 -10.8188 18.0100 -1.7195 0.0000 0.0000 35.6083 1.8491 -0.2417 -0.0078 7.1250 -0.0000 -0.0000 21.9857 -29.7674 8.7634
0.00 0.00 0.00 -173.4800 -3.6951 -169.4660 0.0000 0.0000 0.0000 -9.9397 -1.8970 -26.4609 13.7646 19.0411 71.4841 -0.1580 -8.5602 -2.0827 2.6504 -10.1064 -29.3219 0.0000 0.0000 0.0000 29.4139 14.4740 -34.5206 -6.5424 -14.9341 47.1215 -0.4755 16.5798 -15.9417 -0.0661 1.6587 -4.5633 9.0209 0.6701 2.1863 0.8128 1.0562 -7.2231 -4.2473 -0.2985 -8.7589 -33.6635 -7.8413 14.9722 37.7099 -20.4346 -0.1833 18.8193 -12.6341 5.5048 -0.0000 0.0000 0.0000 -86.3413 13.4547 30.5332 17.1572 -27.0646 -4.1586 -0.0000 0.0000 -29.1751 12.6749 -9.2340 -2.0669 -7.1250 0.0000 -0.0000 -10.2064 20.5855 6.0616 -0.0000 0.0000 0.0000 87.7769 -11.4548 20.5563 -11.5789 19.1701 -1.9618 0.0000 0.0000 32.5475 -1.2960 -0.8098 0.0183 7.1250 -0.0000 -0.0000 19.7570 -30.4087 7.4404
0.00 0.00 0.00 -172.9630 -3.3413 -170.0450 0.0000 0.0000 0.0000 -8.0994 -2.7864 -41.4740 20.3137 19.9976 90.9173 0.5258 -4.1915 -12.9107 2.4096 -9.6717 -27.9200 0.0000 0.0000 0.0000 31.5243 11.1472 -27.4259 -4.7041 -13.0426 39.5283 -0.2545 17.6717 -14.6923 -0.0416 1.3172 -3.6220 9.1334 1.2083 2.6490 0.8155 1.8785 -6.8107 -4.3941 0.1488 -8.4580 -33.0423 -7.8319 15.9896 38.1458 -20.7200 -0.6912 18.9659 -12.9193 5.2878 0.0000 0.0000 0.0000 -85.3798 12.2170 33.2007 20.4199 -31.1449 -5.7470 -0.0000 0.0000 -33.8698 14.4394 -11.5047 -2.9399 -7.1250 0.0000 -0.0000 -8.8958 18.1923 5.7435 0.0000 0.0000 0.0000 86.9916 -7.4967 19.5265 -12.0144 19.8262 -2.1072 0.0000 0.0000 32.5433 -7.9401 -2.1587 0.3010 7.1250 -0.0000 -0.0000 14.8943 -31.9165 4.9143
0.00 0.00 0.00 -172.9200 5.6329 -169.6020 0.0000 0.0000 0.0000 -5.8148 -10.0990 -72.6359 17.6011 19.8615 82.9706 0.7578 -5.2186 -15.5152 2.7270 -10.2393 -29.7553 0.0000 0.0000 0.0000 31.4625 7.9354 -8.6711 -1.4871 -7.7042 21.8191 1.1863 23.2604 -6.0349 -0.2842 3.4286 -9.4743 11.0760 4.2127 5.5640 -0.3408 6.9915 -5.8012 -7.3494 2.8535 -8.0305 -32.6441 -8.2406 16.2136 39.1626 -21.0154 -2.1411 19.3335 -13.1308 5.1132 -0.0000 -0.0000 0.0000 -83.4639 9.2570 34.2020 27.1496 -38.3215 -9.5917 -0.0000 0.0000 -37.9626 15.8014 -12.5304 -3.5135 -7.1250 0.0000 -0.0000 -7.9399 17.0513 5.3143 -0.0000 -0.0000 0.0000 85.1691 7.6782 24.6711 -14.7946 23.8592 -3.1424 0.0000 0.0000 25.3795 -12.0660 -3.6665 0.7832 7.1250 -0.0000 -0.0000 11.8596 -33.5506 3.3913
